<?xml version="1.0" encoding="UTF-8"?>
<svg xmlns="http://www.w3.org/2000/svg" xmlns:xlink="http://www.w3.org/1999/xlink" width="193pt" height="193pt" viewBox="0 0 193 193" version="1.1">
<g id="surface1">
<path style=" stroke:none;fill-rule:evenodd;fill:rgb(100%,100%,100%);fill-opacity:1;" d="M 0 0.242188 L 192.757813 0.242188 L 192.757813 193 L 0 193 L 0 0.242188 "/>
<path style=" stroke:none;fill-rule:evenodd;fill:rgb(13.699341%,12.199402%,12.5%);fill-opacity:1;" d="M 136.796875 92.851563 C 135.902344 91.480469 131.945313 80.453125 131.945313 78.605469 C 131.945313 76.707031 127.933594 70.535156 126.5625 68.636719 C 125.242188 66.734375 123.34375 60.5625 122.816406 58.398438 C 122.289063 56.289063 117.4375 47.371094 116.90625 45.210938 C 116.328125 43.101563 115.007813 39.300781 112.847656 36.609375 C 110.683594 33.921875 107.304688 29.117188 106.9375 26.691406 C 106.515625 24.214844 103.453125 18.882813 101.820313 16.984375 C 101.238281 16.300781 99.394531 12.554688 97.546875 10.335938 C 96.015625 8.492188 94.539063 7.699219 93.484375 11.074219 C 92.113281 15.347656 90.265625 18.039063 88.894531 20.46875 C 87.574219 22.894531 82.195313 30.964844 81.347656 33.394531 C 80.558594 35.820313 74.648438 48.746094 73.015625 51.964844 C 71.429688 55.183594 60.933594 79.660156 60.40625 83.460938 C 59.824219 87.203125 56.34375 96.332031 53.914063 99.601563 C 51.488281 102.820313 47.742188 104.40625 45.582031 105.777344 C 43.417969 107.09375 35.925781 111.949219 33.5 113.847656 C 31.070313 115.746094 25.214844 118.28125 24.320313 119.757813 C 23.472656 121.234375 24.320313 125.558594 25.425781 127.40625 C 26.480469 129.304688 31.28125 134 31.070313 136.957031 C 30.703125 138.222656 29.015625 139.753906 29.964844 140.648438 L 32.125 142.917969 L 32.390625 151.253906 L 28.59375 151.359375 L 24.371094 153.734375 C 24.371094 154.789063 23.632813 155.894531 24.214844 157.003906 C 24.953125 158.324219 28.433594 160.484375 31.597656 161.171875 C 33.445313 161.539063 35.554688 161.433594 38.667969 161.222656 C 38.667969 161.222656 38.773438 162.070313 38.984375 163.335938 C 39.195313 164.917969 39.511719 167.132813 39.828125 168.875 C 40.355469 171.988281 41.304688 174.519531 42.359375 177.050781 C 43.417969 179.636719 46.105469 181.640625 48.007813 182.167969 C 49.90625 182.695313 53.492188 182.695313 55.65625 181.378906 C 57.765625 180.007813 68.53125 173.621094 71.695313 172.515625 C 74.808594 171.355469 81.613281 167.925781 90.792969 167.660156 C 99.972656 167.398438 108.257813 167.132813 116.0625 172.515625 C 123.871094 177.894531 129.042969 183.59375 133.578125 184.332031 C 138.0625 185.070313 142.652344 183.171875 144.5 181.429688 C 146.296875 179.691406 147.5625 176.101563 148.828125 171.195313 C 149.566406 167.609375 148.984375 162.703125 151.9375 163.808594 C 153.257813 164.285156 155.15625 164.230469 156.953125 163.863281 C 160.328125 163.175781 165.445313 159.800781 166.660156 158.746094 C 167.871094 157.742188 169.347656 155.578125 168.558594 154.472656 C 167.714844 153.363281 162.808594 152.996094 162.808594 152.996094 C 162.914063 148.667969 161.859375 146.875 159.113281 143.710938 L 159.960938 135.375 L 167.449219 126.511719 C 167.449219 126.511719 168.558594 122.183594 166.132813 119.492188 C 163.703125 116.800781 146.503906 102.558594 146.503906 102.558594 C 146.503906 102.558594 146.503906 100.921875 144.078125 99.023438 C 141.652344 97.175781 137.695313 94.222656 136.796875 92.851563 "/>
<path style=" stroke:none;fill-rule:evenodd;fill:rgb(100%,100%,100%);fill-opacity:1;" d="M 145.398438 106.882813 C 147.402344 107.253906 162.753906 117.804688 162.175781 123.398438 C 161.648438 129.042969 156.738281 132.261719 156.738281 132.261719 C 156.738281 132.261719 153.46875 131.628906 152.625 133 C 151.835938 134.371094 152.148438 136.535156 151.304688 136.851563 C 150.410156 137.167969 148.140625 136.585938 148.140625 136.585938 C 148.140625 136.585938 143.128906 123.082031 142.917969 118.808594 C 142.761719 114.535156 143.605469 108.835938 145.398438 106.882813 "/>
<path style=" stroke:none;fill-rule:evenodd;fill:rgb(60.798645%,36.898804%,34.098816%);fill-opacity:1;" d="M 118.4375 88.050781 C 118.597656 97.175781 106.882813 105.566406 96.332031 105.566406 C 85.78125 105.566406 74.597656 98.652344 74.753906 86.996094 C 74.914063 75.335938 85.253906 71.484375 96.386719 71.484375 C 107.464844 71.535156 118.226563 78.871094 118.4375 88.050781 "/>
<path style=" stroke:none;fill-rule:evenodd;fill:rgb(100%,100%,100%);fill-opacity:1;" d="M 35.660156 133.527344 L 29.171875 124.714844 C 29.171875 124.714844 27.324219 121.972656 29.277344 120.863281 C 31.28125 119.703125 44.261719 110.367188 44.261719 110.367188 C 44.261719 110.367188 45.949219 109.152344 47.585938 110.734375 C 49.21875 112.316406 48.957031 114.007813 48.640625 116.167969 C 48.324219 118.332031 43.523438 135.796875 43.523438 135.796875 L 42.097656 135.796875 L 38.933594 132.789063 L 35.660156 133.527344 "/>
<path style=" stroke:none;fill-rule:evenodd;fill:rgb(100%,100%,100%);fill-opacity:1;" d="M 64.097656 86.996094 C 64.097656 86.996094 56.394531 108.675781 54.8125 113.902344 C 53.28125 119.175781 48.324219 135.425781 46.953125 142.496094 C 45.582031 149.566406 43.839844 163.757813 44.628906 168.453125 C 45.367188 173.199219 45.949219 177.738281 49.0625 178.421875 C 52.175781 179.160156 55.867188 176.050781 59.558594 174.253906 C 63.203125 172.410156 72.800781 167.132813 77.65625 165.601563 C 82.511719 164.019531 89.472656 162.386719 98.125 162.859375 C 106.777344 163.386719 117.226563 168.347656 121.921875 171.300781 C 125.929688 173.832031 138.011719 186.285156 143.234375 175.523438 C 144.816406 172.25 145.765625 161.488281 145.292969 151.9375 C 144.871094 142.390625 138.539063 115.90625 136.375 106.566406 C 134.265625 97.230469 129.304688 86.625 129.304688 86.625 L 122.132813 86.519531 C 122.078125 86.519531 121.761719 94.433594 118.332031 98.601563 C 114.851563 102.820313 107.886719 108.941406 96.703125 108.835938 C 85.464844 108.730469 79.1875 103.664063 76.074219 100.289063 C 72.90625 96.964844 71.007813 90.476563 71.378906 86.414063 C 71.378906 86.359375 65.257813 86.890625 64.097656 86.996094 "/>
<path style=" stroke:none;fill-rule:evenodd;fill:rgb(67.098999%,52.89917%,57.998657%);fill-opacity:1;" d="M 87.734375 84.988281 C 91.320313 82.667969 93.167969 79.082031 91.742188 76.917969 C 90.371094 74.808594 86.359375 74.964844 82.722656 77.285156 C 79.132813 79.609375 77.285156 83.246094 78.660156 85.359375 C 80.03125 87.523438 84.09375 87.363281 87.734375 84.988281 "/>
<path style=" stroke:none;fill-rule:evenodd;fill:rgb(100%,100%,100%);fill-opacity:1;" d="M 87.257813 84.304688 C 90.214844 82.40625 91.742188 79.449219 90.582031 77.65625 C 89.472656 75.914063 86.152344 76.074219 83.195313 77.972656 C 80.1875 79.871094 78.710938 82.878906 79.820313 84.621094 C 80.980469 86.359375 84.304688 86.257813 87.257813 84.304688 "/>
<path style=" stroke:none;fill-rule:evenodd;fill:rgb(50.999451%,37.298584%,30.599976%);fill-opacity:1;" d="M 91.375 99.128906 C 93.167969 106.460938 104.300781 102.609375 108.890625 99.816406 C 113.480469 96.964844 114.375 90.054688 112.847656 87.628906 C 109.363281 82.089844 103.769531 88.894531 100.605469 90.898438 C 97.441406 92.957031 90.054688 93.851563 91.375 99.128906 "/>
<path style=" stroke:none;fill-rule:evenodd;fill:rgb(13.699341%,12.199402%,12.5%);fill-opacity:1;" d="M 153.523438 174.992188 L 153.523438 169.085938 L 152.097656 169.085938 L 152.097656 166.234375 L 157.480469 166.234375 L 157.480469 169.085938 L 156.054688 169.085938 L 156.054688 174.992188 L 153.523438 174.992188 "/>
<path style=" stroke:none;fill-rule:evenodd;fill:rgb(13.699341%,12.199402%,12.5%);fill-opacity:1;" d="M 164.8125 174.992188 L 164.496094 171.511719 C 164.441406 171.25 164.441406 170.984375 164.441406 170.71875 C 164.390625 170.457031 164.390625 170.195313 164.390625 169.929688 C 164.339844 170.195313 164.285156 170.457031 164.230469 170.71875 C 164.179688 170.984375 164.128906 171.300781 164.074219 171.617188 L 163.230469 174.992188 L 161.699219 174.992188 L 160.90625 171.617188 C 160.804688 171.300781 160.75 170.984375 160.695313 170.71875 C 160.644531 170.457031 160.59375 170.195313 160.59375 169.929688 C 160.59375 170.195313 160.539063 170.457031 160.539063 170.71875 C 160.539063 170.984375 160.484375 171.25 160.484375 171.511719 L 160.171875 174.992188 L 157.691406 174.992188 L 158.851563 166.234375 L 161.488281 166.234375 L 162.015625 168.398438 C 162.015625 168.453125 162.070313 168.558594 162.070313 168.714844 C 162.28125 169.613281 162.4375 170.351563 162.492188 170.933594 L 162.542969 170.933594 C 162.542969 170.5625 162.597656 170.195313 162.703125 169.769531 C 162.753906 169.347656 162.859375 168.875 163.019531 168.347656 L 163.546875 166.234375 L 166.183594 166.234375 L 167.292969 174.992188 L 164.8125 174.992188 "/>
<path style=" stroke:none;fill-rule:evenodd;fill:rgb(73.699951%,74.499512%,75.299072%);fill-opacity:1;" d="M 125.878906 86.679688 L 122.132813 86.625 C 122.078125 86.625 121.761719 94.539063 118.332031 98.707031 C 114.851563 102.875 107.886719 108.996094 96.703125 108.941406 C 91.585938 108.890625 87.523438 107.78125 84.304688 106.355469 C 88.894531 109.3125 94.539063 110.894531 100.078125 110.894531 C 112.636719 110.894531 126.5625 100.921875 126.351563 90.054688 C 126.300781 88.894531 126.140625 87.785156 125.878906 86.679688 "/>
</g>
</svg>
